# Blender v2.72 (sub 0) OBJ File: 'cone.blend'
# www.blender.org
o Cone
v -4.500000 0.009907 0.500000
v -3.500000 0.009907 0.500000
v -4.500000 0.009907 -0.500000
v -3.500000 0.009907 -0.500000
v -4.000000 0.013910 -0.386090
v -3.924678 0.013910 -0.378672
v -3.852250 0.013910 -0.356701
v -3.785500 0.013910 -0.321022
v -3.726993 0.013910 -0.273007
v -3.678978 0.013910 -0.214500
v -3.643299 0.013910 -0.147750
v -3.621328 0.013910 -0.075322
v -3.613910 0.013910 -0.000000
v -4.000000 0.873092 0.000000
v -3.621328 0.013910 0.075322
v -3.643299 0.013910 0.147750
v -3.678978 0.013910 0.214500
v -3.726993 0.013910 0.273007
v -3.785500 0.013910 0.321022
v -3.852250 0.013910 0.356701
v -3.924678 0.013910 0.378672
v -4.000000 0.013910 0.386090
v -4.075323 0.013910 0.378672
v -4.147750 0.013910 0.356701
v -4.214500 0.013910 0.321022
v -4.273007 0.013910 0.273007
v -4.321023 0.013910 0.214500
v -4.356701 0.013910 0.147750
v -4.378672 0.013910 0.075322
v -4.386090 0.013910 -0.000000
v -4.378672 0.013910 -0.075323
v -4.356701 0.013910 -0.147751
v -4.321022 0.013910 -0.214501
v -4.273007 0.013910 -0.273007
v -4.214500 0.013910 -0.321023
v -4.147750 0.013910 -0.356701
v -4.075322 0.013910 -0.378672
vt 0.981156 0.259019
vt 0.981156 0.670988
vt 0.569186 0.670988
vt 0.000000 0.000000
vt 1.000000 0.000000
vt 0.000000 1.000000
vt 0.657578 3.328201
vt 0.751374 3.299748
vt 0.837818 3.253543
vt 0.569186 0.259019
vt 0.560033 3.337809
vt 0.069640 2.740264
vt 0.462488 3.328201
vt 0.975767 2.560024
vt 1.060033 2.837809
vt 1.050425 2.740263
vt 0.098093 2.646467
vt 0.837818 2.422074
vt 0.368691 2.375869
vt 0.098093 3.029151
vt 0.144298 3.115594
vt 0.069640 2.935354
vt 0.282247 2.422074
vt 0.144298 2.560024
vt 0.560032 2.337809
vt 0.462487 2.347416
vt 0.657578 2.347416
vt 0.913586 2.484255
vt 1.021973 2.646467
vt 0.282248 3.253544
vt 0.368692 3.299749
vt 1.050425 2.935354
vt 0.913586 3.191362
vt 0.975767 3.115594
vt 0.060033 2.837809
vt 0.751374 2.375869
vt 0.206480 3.191362
vt 0.206479 2.484255
vt 1.021972 3.029150
vn 0.000000 1.000000 0.000000
vn -0.326700 -0.520500 -0.788800
vn -0.166600 -0.520500 -0.837400
vn 0.000000 -0.520600 -0.853800
vn 0.166600 -0.520500 -0.837400
vn -0.474300 -0.520600 -0.709900
vn -0.603700 -0.520600 -0.603700
vn -0.709900 -0.520500 -0.474300
vn -0.788800 -0.520500 -0.326700
vn -0.837400 -0.520600 -0.166600
vn -0.853800 -0.520500 0.000000
vn -0.837400 -0.520500 0.166600
vn -0.788800 -0.520600 0.326700
vn -0.709900 -0.520600 0.474300
vn -0.603700 -0.520500 0.603700
vn -0.474300 -0.520600 0.709900
vn -0.326700 -0.520600 0.788800
vn -0.166600 -0.520500 0.837400
vn 0.000000 -0.520500 0.853800
vn 0.166600 -0.520500 0.837400
vn 0.326700 -0.520500 0.788800
vn 0.474300 -0.520500 0.709900
vn 0.603700 -0.520600 0.603700
vn 0.709900 -0.520600 0.474300
vn 0.788800 -0.520500 0.326700
vn 0.837400 -0.520600 0.166600
vn 0.853800 -0.520500 0.000000
vn 0.837400 -0.520500 -0.166600
vn 0.788800 -0.520500 -0.326700
vn 0.709900 -0.520600 -0.474300
vn 0.603700 -0.520500 -0.603700
vn 0.474300 -0.520500 -0.709900
vn 0.326700 -0.520500 -0.788800
s 1
f 2/1/1 4/2/1 3/3/1
f 36/4/2 14/5/1 37/4/3
f 5/4/4 14/5/1 6/4/5
f 35/4/6 14/5/1 36/4/2
f 34/4/7 14/5/1 35/4/6
f 33/4/8 14/5/1 34/4/7
f 32/4/9 14/5/1 33/4/8
f 31/4/10 14/5/1 32/4/9
f 30/4/11 14/5/1 31/4/10
f 29/4/12 14/5/1 30/4/11
f 28/4/13 14/5/1 29/4/12
f 27/4/14 14/5/1 28/4/13
f 26/4/15 14/5/1 27/4/14
f 25/4/16 14/5/1 26/4/15
f 24/4/17 14/5/1 25/4/16
f 23/4/18 14/5/1 24/4/17
f 22/4/19 14/5/1 23/4/18
f 21/4/20 14/5/1 22/6/19
f 20/4/21 14/5/1 21/4/20
f 19/4/22 14/5/1 20/4/21
f 18/4/23 14/5/1 19/4/22
f 17/4/24 14/5/1 18/4/23
f 16/4/25 14/5/1 17/4/24
f 15/4/26 14/5/1 16/4/25
f 13/4/27 14/5/1 15/4/26
f 12/4/28 14/5/1 13/4/27
f 11/4/29 14/5/1 12/4/28
f 10/4/30 14/5/1 11/4/29
f 9/4/31 14/5/1 10/4/30
f 8/4/32 14/5/1 9/4/31
f 7/4/33 14/5/1 8/4/32
f 37/4/3 14/5/1 5/4/4
f 6/4/5 14/5/1 7/4/33
f 6/7/5 7/8/33 8/9/32
f 1/10/1 2/1/1 3/3/1
f 5/11/4 29/12/12 37/13/3
f 17/14/24 13/15/27 15/16/26
f 28/17/13 19/18/22 24/19/17
f 32/20/9 33/21/8 31/22/10
f 29/12/12 33/21/8 37/13/3
f 28/17/13 25/23/16 27/24/14
f 22/25/19 23/26/18 24/19/17
f 22/25/19 19/18/22 21/27/20
f 17/14/24 19/18/22 13/15/27
f 18/28/23 19/18/22 17/14/24
f 16/29/25 17/14/24 15/16/26
f 35/30/6 36/31/2 37/13/3
f 12/32/28 13/15/27 28/17/13
f 9/33/31 10/34/30 8/9/32
f 5/11/4 28/17/13 29/12/12
f 5/11/4 10/34/30 28/17/13
f 28/17/13 24/19/17 25/23/16
f 33/21/8 30/35/11 31/22/10
f 19/18/22 20/36/21 21/27/20
f 33/21/8 34/37/7 35/30/6
f 33/21/8 35/30/6 37/13/3
f 10/34/30 5/11/4 6/7/5
f 19/18/22 22/25/19 24/19/17
f 25/23/16 26/38/15 27/24/14
f 10/34/30 11/39/29 12/32/28
f 10/34/30 6/7/5 8/9/32
f 28/17/13 13/15/27 19/18/22
f 10/34/30 12/32/28 28/17/13
f 29/12/12 30/35/11 33/21/8
