# Blender v2.72 (sub 0) OBJ File: 'scene.blend'
# www.blender.org
o Cube.002
v -3.000000 0.000000 3.000000
v -3.000000 0.000000 5.000000
v -5.000000 0.000000 5.000000
v -5.000000 0.000000 3.000000
v -3.000000 2.000000 3.000000
v -3.000001 2.000000 5.000000
v -5.000000 2.000000 5.000000
v -5.000000 2.000000 3.000000
vt 0.335938 0.664062
vt 0.667969 0.664062
vt 0.667969 1.000000
vt 0.335938 0.330078
vt 0.667969 0.330078
vt 1.000000 0.664062
vt 1.000000 1.000000
vt 0.669922 0.330078
vt 0.998047 0.330078
vt 0.998047 0.662109
vt 0.335938 0.328125
vt 0.335938 0.667969
vt 0.000000 0.667969
vt 0.335938 1.000000
vt 0.000000 1.000000
vt 0.000000 0.664062
vt 0.669922 0.662109
vt 0.000000 0.328125
vn 0.000000 -1.000000 0.000000
vn 0.000000 1.000000 0.000000
vn 1.000000 -0.000000 0.000000
vn 0.000000 -0.000000 1.000000
vn -1.000000 -0.000000 -0.000000
vn 0.000000 0.000000 -1.000000
s off
f 1/1/1 2/2/1 3/3/1
f 8/1/2 7/4/2 6/5/2
f 1/2/3 5/6/3 6/7/3
f 2/8/4 6/9/4 7/10/4
f 7/11/5 8/12/5 4/13/5
f 1/14/6 4/15/6 8/16/6
f 4/14/1 1/1/1 3/3/1
f 5/2/2 8/1/2 6/5/2
f 2/3/3 1/2/3 6/7/3
f 3/17/4 2/8/4 7/10/4
f 3/18/5 7/11/5 4/13/5
f 5/1/6 1/14/6 8/16/6
