# Blender v2.72 (sub 0) OBJ File: 'minecraftcube.blend'
# www.blender.org
o Cube
v 1.000000 2.000000 -4.000000
v 1.000000 2.000000 -6.000000
v -1.000000 2.000000 -6.000000
v -1.000000 2.000000 -4.000000
v 1.000000 -0.000000 -4.000000
v 0.999999 0.000000 -6.000001
v -1.000000 0.000000 -6.000000
v -1.000000 -0.000000 -4.000000
vt 0.250123 0.000434
vt 0.500123 0.000434
vt 0.500123 0.332899
vt 0.499426 0.999899
vt 0.501694 0.667108
vt 0.252914 0.667216
vt 0.249674 0.666233
vt 0.000326 0.666233
vt 0.000326 0.332899
vt 0.249674 0.332899
vt 0.250123 0.332899
vt 0.250646 1.000008
vn 0.000000 1.000000 0.000000
vn -0.000000 -1.000000 -0.000000
vn 1.000000 -0.000000 -0.000000
vn -0.000000 0.000000 -1.000000
vn -1.000000 0.000000 0.000000
vn 0.000000 -0.000000 1.000000
s off
f 1/1/1 2/2/1 3/3/1
f 8/4/2 7/5/2 6/6/2
f 5/7/3 6/8/3 2/9/3
f 2/10/4 6/7/4 7/8/4
f 7/7/5 8/8/5 4/9/5
f 1/9/6 4/10/6 8/7/6
f 4/11/1 1/1/1 3/3/1
f 5/12/2 8/4/2 6/6/2
f 1/10/3 5/7/3 2/9/3
f 3/9/4 2/10/4 7/8/4
f 3/10/5 7/7/5 4/9/5
f 5/8/6 1/9/6 8/7/6
